#!OML:ASF F:\VICON\USERDATA\INSTALL\rory3\rory3.ASF
:FULLY-SPECIFIED
:DEGREES
29
root -1.101221446643263 17.236614642349256 -3.157287147534662 2.444449698932881 7.618038038460996 1.7854892437028391
lfemur -25.563491593344 -0.003231689101778179 -28.641117429512697
ltibia 43.27515338713816
lfoot -8.031120940833908 -12.248068169899161
ltoes 2.661308238389683
rfemur -10.237669784151532 -2.7863456790212684 20.290056494813705
rtibia 90.21866332980674
rfoot 17.14329061100087 -13.750437623491909
rtoes 19.383517762978208
lowerback 1.0 0.1334511776402526 -2.5197327161500955
upperback 0.3876902630387512 -0.07365022169046231 -1.1564981114408306
thorax -9.763526086361008 0.0921415335979272 0.7790700777127455
lowerneck -20.522183755188856 -5.492125737559244 -2.1299131468781907
upperneck 10.061501421124742 -7.850237032598439 5.3501527723617475
head 6.716690767568355 -3.3906745947253456 1.184714043226753
lclavicle 8.199929094777968e-17 -4.775205528122997e-15
lhumerus -54.38340568196914 -14.630424401927492 98.93635832021661
lradius 116.61312928546444
lwrist 37.088210283832595
lhand -31.70678944202342 -2.7165201813216164
lfingers 7.12502
lthumb -4.9710514615653585 27.30153002187846
rclavicle 1.7959471225360212e-16 -4.851365069173755e-15
rhumerus -48.745643252611345 14.502463227340144 -102.94446881147573
rradius 114.92148923174841
rwrist -13.235893555082832
rhand -18.55522080428169 1.0
rfingers 7.12502
rthumb 8.535603988979915 2.722541712988157
30
root -1.080253435527807 17.08831344824819 -0.7340051700143917 2.6678774890726467 7.51183827137607 2.2564675325452583
lfemur -22.250606295088716 -0.6067166277972716 -29.152232805379438
ltibia 44.28848599404779
lfoot -13.747755360206737 -6.7115827330138655
ltoes 1.600363202067884
rfemur -15.946211888724145 -4.6915886357793966 18.26437454368629
rtibia 96.44312030003908
rfoot 15.480155059135415 -13.193208960781128
rtoes 25.27203388551216
lowerback 1.0 -0.010501033084458933 -3.052438930943599
upperback 0.40631397761085053 -0.3418081004914587 -1.2042875200015761
thorax -10.160703240966086 0.025781185018324493 1.139234289704786
lowerneck -21.294379747687376 -5.076398799767159 -2.0325504713622538
upperneck 9.850299577219781 -7.333932462263597 5.304006407455049
head 6.682709111725673 -3.1886194953485596 1.1923454797246658
lclavicle 3.258931647551633e-16 -4.552602684884114e-15
lhumerus -50.621803394463505 -16.280350401181625 98.56404982661726
lradius 116.40214012298104
lwrist 37.39473500774342
lhand -31.47637242715648 -3.0173193572557335
lfingers 7.12502
lthumb -4.742754564547358 27.068890967173537
rclavicle 3.5476440923843e-16 -4.734086135390574e-15
rhumerus -49.82745360859155 12.885834252008348 -103.58348727355155
rradius 113.35397516402696
rwrist -12.852258498722932
rhand -18.237175956468008 1.0
rfingers 7.12502
rthumb 8.927134610428139 3.9443091681273383
31
root -1.0470214688151922 17.038810619021294 0.3389896335763476 2.8521046727626542 4.127875584384321 1.6537108785022656
lfemur -18.740031658234848 0.07801633062514923 -28.85107204540443
ltibia 43.101255196799826
lfoot -17.58369685018502 -1.61378066308629
ltoes -1.3837004395701005
rfemur -22.269517540554283 -3.637446635721256 18.290343947045677
rtibia 100.72720646528495
rfoot 14.35676954238862 -11.374612419213404
rtoes 26.905733486072982
lowerback 1.0 0.1311725491526869 -3.215957706208771
upperback 0.3153937471642413 -0.24677456473892556 -0.982572477015389
thorax -10.332032046777838 0.05741958755921622 1.5509571036968843
lowerneck -21.539521781694557 -4.570600622553148 -2.009958772768063
upperneck 9.770685023633606 -6.595294885901758 5.242080701796516
head 6.726932556083209 -2.864377519790903 1.267789300513415
lclavicle 1.1771271838293176e-15 -2.64613538065688e-15
lhumerus -47.18667271369089 -17.464750195535014 98.11949079587971
lradius 116.05465785247077
lwrist 37.33362794342998
lhand -30.97002485194011 -2.0023961494488995
lfingers 7.12502
lthumb -4.384425917029293 28.020165553905073
rclavicle -1.7471957291481736e-16 -2.574448394026473e-15
rhumerus -50.94963199602716 11.644292249110247 -104.07623196313688
rradius 112.41430988513336
rwrist -12.411977513176494
rhand -18.345276248345918 1.0
rfingers 7.12502
rthumb 8.599200215404638 2.982632943525978
32
root -1.045378279206758 17.051570618670787 0.33742361383827113 3.1063796760922995 2.9080013144898076 2.0250053677261404
lfemur -14.787467612280931 -0.17051202556002343 -29.220186350827703
ltibia 40.52372745584772
lfoot -19.027009421846003 1.305785610582527
ltoes -3.248706897324798
rfemur -27.190040641978484 -3.760080411249935 17.750380564422983
rtibia 102.37981064777529
rfoot 13.65974400978587 -9.034490071164095
rtoes 25.782250205358807
lowerback 1.0 0.07744787307570472 -3.687940219617891
upperback 0.1910221769229168 -0.41228287642617245 -0.8000510585185585
thorax -10.370764718982485 0.010787091139832894 1.9211278593523597
lowerneck -20.891351789679295 -4.000043378042562 -1.9866280203665738
upperneck 9.722087557861178 -5.732360250159264 4.967818095708326
head 6.722266233836403 -2.4701631361758962 1.292243808154919
lclavicle 1.033022792859419e-15 -3.5275434940482873e-15
lhumerus -44.131766475573485 -18.035773304597207 97.61816063542875
lradius 115.81435669299161
lwrist 37.14626840542805
lhand -31.389726970589628 0.3479632969066395
lfingers 7.12502
lthumb -5.001257708386766 30.212943275570073
rclavicle 1.2905217408449964e-15 -2.5033844126110342e-15
rhumerus -51.97307161604022 10.896454872840438 -104.25016375361402
rradius 112.06693115795944
rwrist -12.315316057759246
rhand -18.376170629778528 1.0
rfingers 7.12502
rthumb 8.900273552693072 4.532965086622788
33
root -0.9984169052252304 17.13200154262796 1.7529392390452418 3.6669191117677973 2.841906337920455 1.9663763382411548
lfemur -10.631500387104394 -0.8927960976281423 -29.04333997012811
ltibia 38.24038811276179
lfoot -18.422823378604818 2.1166087131971008
ltoes -4.731043918145224
rfemur -32.58077517174658 -4.5993319056295885 18.056215732348385
rtibia 102.18075410918411
rfoot 12.427122602942541 -6.703087824918576
rtoes 23.624101142924445
lowerback 1.0 -0.3337870617100378 -3.533115882516981
upperback 0.0007902101566211739 -0.9142521644331024 -0.37335226136496646
thorax -9.873110011050649 -0.2215050541273978 2.2272175972465127
lowerneck -20.282149876681842 -3.444456740209098 -2.003012750434726
upperneck 10.559990111785822 -4.859664585006011 4.439162205860122
head 6.929439893968901 -2.06947529834206 1.2201125414790899
lclavicle -3.1693713768223147e-15 -8.682155342567036e-15
lhumerus -41.565496293461784 -18.133299222060693 97.01822749018511
lradius 115.79688776322905
lwrist 36.76622805018939
lhand -31.20503454368351 -0.44785360650980655
lfingers 7.12502
lthumb -4.484463712948684 29.738648735005295
rclavicle -2.9441685117213222e-15 -8.26737575437684e-15
rhumerus -53.048029874450854 10.215953786013788 -104.32854046126128
rradius 112.43505883817909
rwrist -12.737092546957328
rhand -18.41369257371299 1.0
rfingers 7.12502
rthumb 8.882228163538214 5.0217111908557515
34
root -1.0270268642762335 17.181103428776655 1.8234267752879498 4.136548436535992 1.6413254649137317 1.3023293287033788
lfemur -6.981459607701437 -0.7108680987389959 -28.259503038841277
ltibia 35.6521940095047
lfoot -14.878257224396597 1.5937427155550434
ltoes -10.871905528585414
rfemur -36.94814456597021 -3.6665951880600085 19.820952766714342
rtibia 100.10718186615077
rfoot 10.378346309006044 -4.927475651429916
rtoes 19.41083098203463
lowerback 1.0 -0.4814185095150041 -3.29507467248691
upperback -0.34022518578830946 -1.0510830277228358 0.1914865458529038
thorax -9.690897820793035 -0.3037928274168606 2.5545462723954304
lowerneck -19.541369151216497 -3.018584246300607 -1.9728558512248044
upperneck 11.983755459995145 -4.168507006782339 3.738945082186373
head 7.281527628867449 -1.7519313756354356 1.0722935510834963
lclavicle -3.8746393579789134e-15 -9.110166485568626e-15
lhumerus -39.98166565231364 -18.089263067231997 96.57543744107237
lradius 116.63967513406479
lwrist 36.640958497545995
lhand -31.023560606816016 -0.994290835141985
lfingers 7.12502
lthumb -4.319063263815377 29.183671720081126
rclavicle -2.8163734915070137e-15 -8.165222858877162e-15
rhumerus -54.164171611587925 9.92810928856952 -104.23999441276607
rradius 113.8745838688801
rwrist -14.080556140595672
rhand -17.788524053110276 1.0
rfingers 7.12502
rthumb 9.417052774851268 5.931672907543216
35
root -0.997188641691789 17.309899125067968 2.550722848454776 4.602178049484441 0.9227669294097965 0.8325227073111867
lfemur -3.5604062143972754 -0.7956815590238733 -27.364397735306483
ltibia 34.15427700113156
lfoot -8.592534296279954 -0.2264716031792151
ltoes -20.38412177032388
rfemur -40.00148269752417 -2.705962528252118 21.45628063397615
rtibia 96.19349649148702
rfoot 7.910350926497303 -3.9005794243868026
rtoes 13.414708961726438
lowerback 1.0 -0.7091705293895197 -2.8623193641875435
upperback -0.6689283148795764 -1.2486570311523542 0.8345097121307635
thorax -9.435035352057607 -0.42865170692129356 2.767452773972591
lowerneck -20.381096555895034 -2.8791896068367726 -2.116067045074942
upperneck 13.776398626965769 -3.8835604517648266 3.2087980222154324
head 7.9201013461425935 -1.6205408724972044 0.9345217676731499
lclavicle -2.703447170985534e-15 -6.89124121733088e-15
lhumerus -38.790302056344096 -17.825282034483717 96.17089128256917
lradius 117.77783178116208
lwrist 36.547381380172084
lhand -31.00147901741988 -1.8242482351239646
lfingers 7.12502
lthumb -4.248460738425526 28.441015461145472
rclavicle -1.4251964407223278e-15 -5.742128044570758e-15
rhumerus -55.189058622012375 9.920987024203537 -104.01997567006083
rradius 115.64576131076777
rwrist -15.95136271864465
rhand -17.82635254330413 1.0
rfingers 7.12502
rthumb 9.098405572851473 5.330398797912529
